Coordinates
version=1
nRows=19
nColumns=36
inDegrees=yes

Units are S.I. units (second, meters, Newtons, ...)
If the header above contains a line with 'inDegrees', this indicates whether rotational values are in degrees (yes) or radians (no).

endheader
time	pelvis_tilt	pelvis_list	pelvis_rotation	pelvis_tx	pelvis_ty	pelvis_tz	hip_flexion_r	hip_adduction_r	hip_rotation_r	knee_angle_r	knee_angle_r_beta	ankle_angle_r	subtalar_angle_r	mtp_angle_r	hip_flexion_l	hip_adduction_l	hip_rotation_l	knee_angle_l	knee_angle_l_beta	ankle_angle_l	subtalar_angle_l	mtp_angle_l	lumbar_extension	lumbar_bending	lumbar_rotation	arm_flex_r	arm_add_r	arm_rot_r	elbow_flex_r	pro_sup_r	arm_flex_l	arm_add_l	arm_rot_l	elbow_flex_l	pro_sup_l
      2.80416670	     -8.86880925	     -0.72783523	      5.22244315	      0.36006222	      1.49359711	     -0.00861102	      8.51308175	     -4.67159409	    -11.74777387	      2.92979264	      0.05113453	    -28.95583400	      8.13215173	     -7.49999987	      9.09742152	     -6.62385741	    -18.47311465	      2.55695712	      0.04462732	    -23.22030283	      0.99172535	     -7.49999987	     -7.65225667	      5.34721668	     16.64501757	    252.71777199	    -39.18906169	    209.34485888	     57.83955555	     61.09693366	     71.13300016	    -63.11366539	     23.41175976	     19.63064086	     81.24001277
      2.80833330	     -8.89439935	     -0.79810845	      5.37468146	      0.35945920	      1.49780174	     -0.00796743	      8.61574929	     -4.50402854	    -12.19056190	      2.77954852	      0.04851227	    -29.12768277	      8.34938657	     -7.49999987	      9.23915116	     -6.70828504	    -18.40493489	      2.67582434	      0.04670194	    -23.25408441	      1.61827880	     -7.49999987	     -8.03929592	      5.27219669	     16.95432973	    255.70263475	    -38.38667672	    212.74497942	     58.91452580	     61.68552502	     68.42765425	    -61.97879290	     21.22620659	     19.95692136	     79.41465936
      2.81250000	     -8.81963268	     -0.84464922	      5.44363835	      0.35951307	      1.49586513	     -0.00869318	      8.52005822	     -4.59060337	    -11.83656123	      2.84982164	      0.04973877	    -28.56920925	      8.60559741	     -7.49999987	      9.32377455	     -6.83861977	    -18.20901773	      2.84611559	      0.04967409	    -22.96508455	      2.00620180	     -7.49999987	     -8.26601532	      5.14848774	     17.66158205	    257.97419304	    -37.94237611	    215.35619920	     58.67748547	     62.97696007	     67.45849501	    -60.23191875	     18.80178923	     19.02541820	     84.21800783
      2.81666670	     -8.73615552	     -0.93869285	      5.45320187	      0.36162772	      1.49591851	     -0.00812348	      8.49122963	     -4.59464149	    -11.60488058	      2.99314882	      0.05224030	    -28.31474280	      8.61551577	     -7.49999987	      9.32460782	     -6.97277002	    -18.11039315	      2.90023486	      0.05061865	    -22.55452728	      2.52293789	     -7.49999987	     -8.58862145	      5.28318507	     17.88626893	    260.07555594	    -36.52655939	    218.21706119	     59.63469897	     63.16451682	     65.19664662	    -60.07566697	     18.42899434	     19.34324019	     83.46598528
      2.82083330	     -8.68021100	     -1.01409476	      5.48447094	      0.36122324	      1.50206727	     -0.01084371	      8.33795840	     -4.75817427	    -11.37157765	      3.05677404	      0.05335077	    -28.01685661	      8.81180028	     -7.49999987	      9.39752340	     -6.98583352	    -17.88751476	      2.94171024	      0.05134253	    -22.40257811	      2.74084875	     -7.49999987	     -8.79997242	      5.41481158	     18.28516250	    261.88731220	    -36.51545127	    219.35019550	     59.30315752	     63.23659282	     63.56284982	    -59.26460032	     18.54173193	     18.71948620	     83.47297905
      2.82500000	     -8.60880879	     -0.99154480	      5.54590092	      0.36153238	      1.50366286	     -0.01080053	      8.29594510	     -4.93975878	    -11.47881217	      3.07193442	      0.05361537	    -27.82473065	      9.04119003	     -7.49999987	      9.45604050	     -6.89673426	    -18.12571383	      3.11874477	      0.05443236	    -22.11246255	      3.28373094	     -7.49999987	     -9.04211160	      5.41269983	     18.73392041	    263.06063050	    -36.39262851	    221.71026695	     58.90783849	     63.63209231	     62.35479342	    -57.86963824	     16.38870860	     18.48886417	     82.35292771
      2.82916670	     -8.55874935	     -1.02130506	      5.59995496	      0.36225308	      1.50454008	     -0.00810701	      8.11155187	     -4.92417820	    -11.16850371	      2.97034412	      0.05184228	    -27.49047929	      9.16722410	     -7.49999987	      9.56375077	     -6.90094419	    -18.20838175	      3.21235196	      0.05606612	    -22.03559332	      3.45943588	     -7.49999987	     -9.32907422	      5.45042773	     18.74712250	    265.10725585	    -36.39100251	    223.43253736	     59.24424075	     63.65444243	     60.21310013	    -57.58489169	     15.94367590	     18.70622845	     81.13527970
      2.83333330	     -8.53573637	     -1.11926784	      5.49748176	      0.36013693	      1.50260726	     -0.00734188	      8.33013246	     -4.75404883	    -11.00049605	      3.02417284	      0.05278177	    -27.45203166	      8.93597895	     -7.49999987	      9.77033109	     -7.01805693	    -18.49775503	      3.39291058	      0.05921746	    -21.63550096	      3.69358434	     -7.49999987	     -9.72230542	      5.58581455	     18.71173576	    266.45583289	    -35.95893079	    225.79125733	     60.37583785	     64.44421794	     57.86440030	    -57.14151363	     13.41430775	     19.12679162	     81.22190440
      2.83750000	     -8.52652440	     -1.09893389	      5.56424077	      0.36165695	      1.50100927	     -0.00875694	      8.43301527	     -4.83019088	    -10.83083280	      3.10419060	      0.05417835	    -27.41976672	      9.06317761	     -7.49999987	     10.03453058	     -7.00721825	    -18.57726090	      3.64182568	      0.06356185	    -21.60887015	      3.45809116	     -7.49999987	    -10.02920221	      5.50456785	     18.30334111	    268.49432233	    -36.06162305	    227.40385063	     61.45237782	     66.94485676	     54.58337758	    -56.87844722	      6.37930654	     20.65308061	     87.35841680
      2.84166670	     -8.61482158	     -1.10956054	      5.46540675	      0.36204298	      1.49784676	     -0.00876689	      8.73536441	     -4.93375173	    -10.33840422	      3.36816959	      0.05878565	    -27.07798286	      9.37664026	     -7.49999987	     10.39519328	     -7.02117884	    -18.58610568	      3.86597897	      0.06747406	    -21.42320596	      3.26898592	     -7.49999987	    -10.27909211	      5.59506607	     17.94337775	    269.71043544	    -36.03344277	    228.98722698	     62.39144992	     67.04652497	     51.38048397	    -57.42976460	      4.64387862	     21.48719613	     85.84951828
      2.84583330	     -8.74444103	     -1.21926663	      5.41617351	      0.36120659	      1.49919046	     -0.00661940	      9.10023480	     -4.90689851	     -9.74119610	      3.56850981	      0.06228225	    -26.87110780	      9.22639938	     -7.49999987	     10.87991137	     -7.15517821	    -18.75267913	      4.10170488	      0.07158826	    -21.30726442	      2.82948878	     -7.49999987	    -10.52848907	      5.65169888	     18.16668481	    271.27976930	    -36.02319039	    230.07640211	     62.51262438	     66.80026439	     49.81828459	    -56.76708001	      4.62246980	     21.66253473	     84.83509806
      2.85000000	     -8.70058625	     -1.08778373	      5.33487479	      0.36168104	      1.50199440	     -0.00451874	      9.13295578	     -5.13370793	     -9.17870544	      3.81967446	      0.06666590	    -26.50586665	      9.25698548	     -7.49999987	     10.99996109	     -7.18618375	    -19.08083900	      4.23155507	      0.07385457	    -21.40367734	      2.81947119	     -7.49999987	    -10.96603213	      5.10297296	     17.89724562	    273.47313693	    -36.37980158	    233.32821488	     63.03598809	     66.88296722	     48.43719601	    -56.93001079	      3.76727197	     21.39352191	     83.73810539
      2.85416670	     -8.81428843	     -1.10094079	      5.22276242	      0.36336913	      1.50021948	     -0.00496410	      9.32822697	     -5.18803227	     -8.72227380	      3.93181490	      0.06862312	    -26.07560958	      9.44766208	     -7.49999987	     11.26923355	     -7.23384019	    -19.21055996	      4.34813358	      0.07588925	    -21.38807500	      2.92846523	     -7.49999987	    -11.28719427	      5.01946179	     17.58080446	    275.04061739	    -36.65812843	    235.19340617	     63.41623762	     69.53254052	     43.86521747	    -56.96543478	     -2.89659525	     23.58631637	     87.05870053
      2.85833330	     -8.86579534	     -1.06616634	      5.12467476	      0.36423494	      1.50173398	     -0.00455558	      9.37429733	     -5.31306550	     -8.27379530	      4.01541932	      0.07008229	    -25.75049952	      9.49471555	     -7.49999987	     11.38743318	     -7.26208102	    -19.22146398	      4.46253164	      0.07788587	    -21.34166025	      2.79709972	     -7.49999987	    -11.39446360	      4.72032072	     17.78328230	    277.23883023	    -36.79711582	    237.27418858	     63.48867445	     69.17753562	     42.10944684	    -56.63077842	     -3.02314293	     23.92103989	     85.80769881
      2.86250000	     -8.98580750	     -1.07009019	      5.11381723	      0.36460509	      1.49798323	     -0.00631657	      9.51477712	     -5.48961478	     -8.10701887	      4.25010116	      0.07417826	    -25.35103484	      9.32781360	     -7.49999987	     11.62484296	     -7.16705857	    -19.37361827	      4.59953669	      0.08027706	    -20.96630975	      2.64677954	     -7.49999987	    -11.54780541	      4.55417928	     16.42627892	    279.65907962	    -38.72117996	    239.20466199	     63.79891874	     71.22377931	     35.55803707	    -57.30998463	    -10.34232788	     27.41855752	     88.70858029
      2.86666670	     -9.01659229	     -1.06089285	      5.02045094	      0.36431333	      1.49594174	     -0.00436409	      9.63634188	     -5.62724723	     -8.01450022	      4.46304519	      0.07789483	    -25.21095136	      8.88690067	     -7.49999987	     11.75894841	     -7.10799580	    -19.30578985	      4.66961993	      0.08150024	    -20.75514127	      2.61036951	     -7.49999987	    -11.70018769	      4.42667751	     16.84023286	    281.46519417	    -38.49950995	    240.82287023	     63.87416864	     70.85469280	     34.41715106	    -56.44863043	    -10.35010818	     27.71214761	     87.70184615
      2.87083330	     -9.02314906	     -1.13265600	      4.95998812	      0.36501091	      1.49882336	     -0.00494961	      9.71014219	     -5.64824111	     -7.70524212	      4.63387535	      0.08087638	    -25.05957399	      8.74674158	     -7.49999987	     11.92289529	     -7.09156940	    -19.16878309	      4.65470670	      0.08123996	    -20.53555691	      2.60525509	     -7.49999987	    -11.84840282	      4.39409703	     16.87988491	    283.68846986	    -38.88549272	    242.92723815	     63.89402555	     70.42570082	     32.89929111	    -55.54204643	    -10.58585035	     27.86079947	     86.40265860
      2.87500000	     -9.11152313	     -1.15262118	      4.94247136	      0.36657072	      1.49783368	     -0.00500966	      9.85862203	     -5.74424689	     -7.54873308	      4.72274402	      0.08242743	    -25.23265128	      8.47875911	     -7.49999987	     12.14187830	     -7.03939728	    -19.15036175	      4.69101126	      0.08187359	    -20.55595704	      2.43348844	     -7.49999987	    -11.86858522	      4.38259640	     16.64425523	    285.99381960	    -39.60799496	    244.68430537	     63.60161925	     70.19746004	     31.23101646	    -54.44450528	    -11.57015533	     27.93637623	     85.54439196
      2.87916670	     -9.12704672	     -1.14557685	      4.90930511	      0.36769669	      1.49984988	     -0.00384272	      9.85245825	     -5.84534497	     -7.28135388	      4.69360794	      0.08191891	    -25.27041521	      8.62773722	     -7.49999987	     12.23835540	     -7.02073721	    -18.83750943	      4.66489438	      0.08141777	    -20.72613124	      2.48727567	     -7.49999987	    -12.05109134	      4.27000472	     16.85925669	    288.28425640	    -39.43109027	    246.54644992	     63.61472623	     70.01267206	     30.50211932	    -53.00469084	    -11.67123085	     28.32674940	     84.83785956
